Coordinates
version=1
nRows=6
nColumns=60
inDegrees=yes

Units are S.I. units (second, meters, Newtons, ...)
If the header above contains a line with 'inDegrees', this indicates whether rotational values are in degrees (yes) or radians (no).

endheader
time	pelvis_tilt	pelvis_list	pelvis_rotation	pelvis_tx	pelvis_ty	pelvis_tz	hip_flexion_r	hip_adduction_r	hip_rotation_r	knee_angle_r_beta	knee_angle_r	ankle_angle_r	subtalar_angle_r	mtp_angle_r	hip_flexion_l	hip_adduction_l	hip_rotation_l	knee_angle_l_beta	knee_angle_l	ankle_angle_l	subtalar_angle_l	mtp_angle_l	L5_S1_Flex_Ext	L5_S1_Lat_Bending	L5_S1_axial_rotation	L4_L5_Flex_Ext	L4_L5_Lat_Bending	L4_L5_axial_rotation	L3_L4_Flex_Ext	L3_L4_Lat_Bending	L3_L4_axial_rotation	L2_L3_Flex_Ext	L2_L3_Lat_Bending	L2_L3_axial_rotation	L1_L2_Flex_Ext	L1_L2_Lat_Bending	L1_L2_axial_rotation	L1_T12_Flex_Ext	L1_T12_Lat_Bending	L1_T12_axial_rotation	Abs_r3	Abs_r2	Abs_r1	Abs_t1	Abs_t2	arm_flex_r	arm_add_r	arm_rot_r	elbow_flex_r	pro_sup_r	wrist_flex_r	wrist_dev_r	arm_flex_l	arm_add_l	arm_rot_l	elbow_flex_l	pro_sup_l	wrist_flex_l	wrist_dev_l
      2.83000000	      2.05196748	    -10.38591464	     95.64576465	      0.40548922	      0.86136547	      0.38458851	     42.42127488	     -6.15324823	     -1.71302957	      0.72789720	    -41.70543760	     10.55475780	      0.00000000	      0.00000000	     44.53792131	     -5.94769405	      2.18364948	      0.70357899	    -40.31210645	      8.88189127	      0.00000000	      0.00000000	    -10.34809482	      0.40987445	      0.01411751	    -19.21744689	      0.54513302	      0.01499986	    -17.00088498	      0.99656875	      0.01499986	    -11.82683757	      0.99656875	      0.01235282	     -9.60924085	      0.83581598	      0.01147048	     -5.91290138	      0.63489553	      0.01058814	    -73.91540647	      4.63658179	      0.07851738	      0.00000000	      0.00000000	     68.11632636	    -19.31617534	     13.60534347	     46.51512333	     70.41373776	     23.31146225	      6.35547322	     74.45907184	    -18.20591010	     29.58514905	     40.57989670	     63.04979015	     27.16227082	     -0.13730245
      2.84000000	      2.12415064	    -10.03574046	     95.64802809	      0.40567331	      0.86403173	      0.38309606	     41.56030372	     -6.01341265	     -1.85912409	      0.71603855	    -41.02598703	     10.32937176	      0.00000000	      0.00000000	     43.70262470	     -6.04736422	      2.25943077	      0.69237141	    -39.66995979	      8.74728213	      0.00000000	      0.00000000	    -10.31127197	      0.41907236	      0.02231179	    -19.14906318	      0.55736624	      0.02370628	    -16.94038872	      1.01893254	      0.02370628	    -11.78475274	      1.01893254	      0.01952282	     -9.57504715	      0.85457236	      0.01812833	     -5.89186080	      0.64914309	      0.01673384	    -73.65238456	      4.74063036	      0.12409149	      0.00000000	      0.00000000	     66.93194151	    -19.54067486	     13.63316962	     47.35938690	     70.00330328	     23.00786147	      6.52106243	     73.25511949	    -18.47869007	     29.26147627	     41.52405758	     62.84445754	     26.86440072	      0.12690422
      2.85000000	      2.17434503	     -9.69734588	     95.63577798	      0.40585901	      0.86667515	      0.38160585	     40.69456968	     -5.85765107	     -1.87297210	      0.70355515	    -40.31074050	     10.10891447	      0.00000000	      0.00000000	     42.84205921	     -6.10205685	      2.44149426	      0.68014790	    -38.96960418	      8.61400274	      0.00000000	      0.00000000	    -10.26530139	      0.42427952	      0.03018190	    -19.06369120	      0.56429176	      0.03206827	    -16.86486365	      1.03159321	      0.03206827	    -11.73221295	      1.03159321	      0.02640916	     -9.53235887	      0.86519079	      0.02452280	     -5.86559321	      0.65720897	      0.02263643	    -73.32402127	      4.79953473	      0.16786268	      0.00000000	      0.00000000	     65.72913842	    -19.76024819	     13.68545073	     48.08367929	     69.57205186	     22.65330563	      6.73879653	     72.09868614	    -18.71312848	     29.05055172	     42.31944757	     62.69896468	     26.51829280	      0.48685547
      2.86000000	      2.19264999	     -9.46543266	     95.59503263	      0.40608661	      0.86906775	      0.38014017	     39.97341601	     -5.74878558	     -1.92882041	      0.69173000	    -39.63320962	      9.98423628	      0.00000000	      0.00000000	     42.08842714	     -6.15517313	      2.50833435	      0.66795063	    -38.27075191	      8.54845474	      0.00000000	      0.00000000	    -10.18334332	      0.42302159	      0.03204007	    -18.91148689	      0.56261872	      0.03404258	    -16.73021475	      1.02853470	      0.03404258	    -11.63854309	      1.02853470	      0.02803506	     -9.45625261	      0.86262563	      0.02603256	     -5.81876238	      0.65526045	      0.02403005	    -72.73860303	      4.78530488	      0.17819728	      0.00000000	      0.00000000	     64.56076953	    -19.85931745	     13.81088640	     48.31087750	     69.48478789	     22.59985956	      6.79034223	     71.02688866	    -18.86968463	     29.13527532	     42.57692196	     62.67866079	     26.46981358	      0.57651708
      2.87000000	      2.19512862	     -9.11538856	     95.54097621	      0.40630796	      0.87162985	      0.37851873	     39.12146735	     -5.63218365	     -1.96617559	      0.68003151	    -38.96293534	      9.81450521	      0.00000000	      0.00000000	     41.20433349	     -6.20318405	      2.60922962	      0.65625793	    -37.60080973	      8.44647578	      0.00000000	      0.00000000	    -10.11806155	      0.41941575	      0.03444070	    -18.79025210	      0.55782295	      0.03659324	    -16.62296331	      1.01976746	      0.03659324	    -11.56393254	      1.01976746	      0.03013561	     -9.39563195	      0.85527260	      0.02798307	     -5.78146037	      0.64967500	      0.02583052	    -72.27230181	      4.74451485	      0.19154883	      0.00000000	      0.00000000	     63.33816885	    -19.99980220	     13.89864593	     48.72653331	     69.40063907	     22.56726226	      6.81254034	     69.91289877	    -19.05999353	     29.17283471	     42.99502731	     62.65312489	     26.43786590	      0.64183109
      2.88000000	      2.16055089	     -8.53029384	     95.48388642	      0.40644011	      0.87472806	      0.37672714	     37.90015920	     -5.48781398	     -1.81188311	      0.66486754	    -38.09410407	      9.53552981	      0.00000000	      0.00000000	     39.94598309	     -6.20336124	      2.81852296	      0.64112312	    -36.73364871	      8.27353718	      0.00000000	      0.00000000	    -10.10570771	      0.42136920	      0.04184495	    -18.76730979	      0.56042104	      0.04446026	    -16.60266720	      1.02451708	      0.04446026	    -11.54981334	      1.02451708	      0.03661433	     -9.38416018	      0.85925608	      0.03399902	     -5.77440139	      0.65270090	      0.03138371	    -72.18405962	      4.76661271	      0.23272906	      0.00000000	      0.00000000	     61.99459057	    -20.34319550	     13.82604525	     49.83982390	     69.19465634	     22.47332389	      6.82083886	     68.72626855	    -19.41396118	     28.98201205	     44.06991001	     62.57301916	     26.33754707	      0.76778412
